<?xml version="1.0" encoding="UTF-8"?>
<svg width="211px" height="66px" viewBox="0 0 211 66" version="1.1" xmlns="http://www.w3.org/2000/svg" xmlns:xlink="http://www.w3.org/1999/xlink">
    <!-- Generator: Sketch 50.2 (55047) - http://www.bohemiancoding.com/sketch -->
    <title>introduction copy</title>
    <desc>Created with Sketch.</desc>
    <defs></defs>
    <g id="Site" stroke="none" stroke-width="1" fill="none" fill-rule="evenodd" fill-opacity="0.4">
        <g id="Poster-Copy-5" transform="translate(-416.000000, -525.000000)" fill="#002187">
            <path d="M428.30699,531.911353 L422.60699,538.481353 L416.93699,538.481353 L422.63699,531.911353 L428.30699,531.911353 Z M445.10699,553.331353 L438.53699,553.331353 L430.88699,546.431353 L423.26699,553.331353 L416.69699,553.331353 L425.69699,545.201353 L418.73699,539.171353 L425.30699,539.171353 L430.88699,544.001353 L436.49699,539.171353 L443.06699,539.171353 L436.07699,545.201353 L445.10699,553.331353 Z M433.37699,531.911353 L439.04699,531.911353 L444.74699,538.481353 L439.07699,538.481353 L433.37699,531.911353 Z M444.50699,528.071353 L444.50699,531.071353 L417.32699,531.071353 L417.32699,528.071353 L428.21699,528.071353 L428.21699,525.881353 L433.61699,525.881353 L433.61699,528.071353 L444.50699,528.071353 Z M475.923112,553.391353 L468.063112,553.391353 L461.193112,548.441353 L454.293112,553.391353 L446.433112,553.391353 L457.173112,545.561353 L448.803112,539.531353 L448.803112,530.291353 L454.023112,530.831353 L454.023112,537.371353 L461.193112,542.621353 L468.363112,537.371353 L468.363112,529.931353 L448.833112,529.931353 L448.833112,526.661353 L473.583112,526.661353 L473.583112,539.531353 L465.213112,545.561353 L475.923112,553.391353 Z M458.823112,531.341353 L463.623112,531.341353 L463.623112,537.161353 L458.823112,537.161353 L458.823112,531.341353 Z M478.389234,544.211353 L478.389234,541.211353 L490.899234,541.211353 L489.309234,553.001353 L479.349234,553.001353 L479.349234,550.001353 L485.229234,550.001353 L486.009234,544.211353 L478.389234,544.211353 Z M482.649234,540.191353 L482.649234,536.861353 L486.369234,536.861353 L486.369234,540.191353 L482.649234,540.191353 Z M484.569234,530.561353 L481.599234,539.081353 L477.339234,539.081353 L482.109234,526.391353 L486.939234,526.391353 L491.799234,539.081353 L487.419234,539.081353 L484.569234,530.561353 Z M504.909234,546.551353 L501.639234,546.551353 L501.639234,535.721353 L495.279234,535.721353 L495.279234,546.551353 L492.039234,546.551353 L492.039234,532.721353 L496.059234,532.721353 L496.059234,529.871353 L500.859234,530.291353 L500.859234,532.721353 L504.909234,532.721353 L504.909234,546.551353 Z M505.209234,526.601353 L505.209234,529.601353 L491.559234,529.601353 L491.559234,526.601353 L505.209234,526.601353 Z M500.589234,545.621353 L505.359234,553.091353 L500.649234,553.091353 L498.459234,549.431353 L496.299234,553.091353 L491.559234,553.091353 L496.329234,545.621353 L496.329234,536.291353 L500.589234,536.861353 L500.589234,545.621353 Z M517.185357,538.421353 L517.185357,535.421353 L527.085357,535.421353 L527.085357,547.271353 L517.185357,547.271353 L517.185357,538.721353 L521.235357,539.321353 L521.235357,544.271353 L523.035357,544.271353 L523.035357,538.421353 L517.185357,538.421353 Z M535.665357,533.141353 L532.365357,533.141353 L533.505357,543.221353 L535.605357,542.081353 L535.605357,546.341353 L533.955357,547.211353 L534.675357,553.451353 L530.265357,553.451353 L529.785357,549.461353 L527.865357,550.541353 L527.865357,546.281353 L529.335357,545.471353 L527.925357,533.141353 L517.185357,533.141353 L517.185357,530.111353 L527.595357,530.111353 L527.145357,526.181353 L531.555357,526.181353 L532.005357,530.111353 L535.665357,530.111353 L535.665357,533.141353 Z M517.185357,552.851353 L517.185357,549.821353 L527.085357,549.821353 L527.085357,552.851353 L517.185357,552.851353 Z M535.125357,526.631353 L535.125357,529.421353 L532.635357,529.421353 L532.635357,526.631353 L535.125357,526.631353 Z M508.335357,553.001353 L508.335357,550.001353 L516.375357,550.001353 L516.375357,553.001353 L508.335357,553.001353 Z M514.755357,526.361353 L514.755357,532.481353 L516.375357,532.481353 L516.375357,535.481353 L514.755357,535.481353 L514.755357,549.611353 L509.955357,549.161353 L509.955357,535.481353 L508.335357,535.481353 L508.335357,532.481353 L509.955357,532.481353 L509.955357,526.361353 L514.755357,526.361353 Z M566.151479,538.631353 L566.151479,541.631353 L562.461479,541.631353 L562.461479,553.301353 L557.361479,553.301353 L557.361479,541.631353 L548.241479,541.631353 L547.371479,553.301353 L542.121479,553.301353 L542.991479,541.631353 L538.731479,541.631353 L538.731479,538.631353 L543.111479,538.631353 L543.111479,530.081353 L548.211479,530.531353 L548.211479,538.631353 L557.361479,538.631353 L557.361479,530.081353 L562.461479,530.531353 L562.461479,538.631353 L566.151479,538.631353 Z M565.641479,526.661353 L565.641479,529.661353 L539.241479,529.661353 L539.241479,526.661353 L565.641479,526.661353 Z M593.727602,526.541353 L593.727602,530.021353 L588.927602,530.021353 L588.927602,526.541353 L593.727602,526.541353 Z M596.427602,553.091353 L590.517602,553.091353 L586.647602,549.281353 L582.147602,553.091353 L575.787602,553.091353 L583.737602,546.371353 L577.887602,540.611353 L583.797602,540.611353 L586.917602,543.671353 L590.367602,540.761353 L590.367602,539.051353 L577.467602,539.051353 L574.317602,553.181353 L569.517602,553.181353 L573.837602,533.741353 L569.157602,533.741353 L570.357602,526.631353 L574.617602,526.631353 L573.897602,530.741353 L575.457602,530.741353 L576.237602,526.391353 L581.097602,526.391353 L580.317602,530.741353 L596.367602,530.741353 L596.367602,533.741353 L578.637602,533.741353 L578.127602,536.051353 L595.107602,536.051353 L595.107602,542.141353 L589.827602,546.581353 L596.427602,553.091353 Z M626.853724,537.191353 L615.843724,537.191353 L610.173724,539.981353 L624.993724,539.981353 L624.993724,553.031353 L603.603724,553.031353 L603.603724,543.281353 L608.253724,543.851353 L608.253724,550.061353 L620.343724,550.061353 L620.343724,542.921353 L604.173724,542.921353 L599.673724,545.141353 L599.673724,541.241353 L607.983724,537.191353 L599.973724,537.191353 L599.973724,534.191353 L607.353724,534.191353 L607.353724,531.521353 L601.203724,531.521353 L601.203724,528.521353 L607.353724,528.521353 L607.353724,526.271353 L612.153724,526.271353 L612.153724,528.521353 L617.883724,528.521353 L617.883724,531.521353 L612.153724,531.521353 L612.153724,534.191353 L613.623724,534.191353 L626.553724,527.291353 L626.553724,531.341353 L620.883724,534.191353 L626.853724,534.191353 L626.853724,537.191353 Z M609.063724,545.021353 L619.503724,545.021353 L619.503724,547.991353 L609.063724,547.991353 L609.063724,545.021353 Z M444.74699,581.091353 L444.74699,584.091353 L434.99699,584.091353 L444.44699,587.001353 L444.44699,590.661353 L431.18699,586.431353 L417.89699,590.661353 L417.89699,587.001353 L427.34699,584.091353 L417.62699,584.091353 L417.62699,581.091353 L428.63699,581.091353 L428.63699,579.111353 L433.73699,579.561353 L433.73699,581.091353 L444.74699,581.091353 Z M444.44699,575.661353 L444.44699,578.661353 L417.92699,578.661353 L417.92699,575.661353 L428.63699,575.661353 L428.63699,573.711353 L418.43699,573.711353 L418.43699,570.711353 L428.63699,570.711353 L428.63699,568.911353 L433.73699,569.301353 L433.73699,570.711353 L443.93699,570.711353 L443.93699,573.711353 L433.73699,573.711353 L433.73699,575.661353 L444.44699,575.661353 Z M444.44699,565.611353 L444.44699,568.611353 L417.92699,568.611353 L417.92699,565.611353 L422.39699,565.611353 L421.31699,563.181353 L426.35699,563.181353 L427.43699,565.611353 L434.93699,565.611353 L436.01699,563.181353 L441.05699,563.181353 L439.97699,565.611353 L444.44699,565.611353 Z M452.853112,570.471353 L452.853112,574.791353 L448.053112,574.791353 L448.053112,567.471353 L451.083112,567.471353 L450.033112,563.511353 L455.073112,563.511353 L456.123112,567.471353 L459.213112,567.471353 L458.163112,563.511353 L463.173112,563.511353 L464.223112,567.471353 L466.593112,567.471353 L467.973112,563.511353 L473.013112,563.511353 L471.603112,567.471353 L474.933112,567.471353 L474.933112,574.791353 L470.133112,574.791353 L470.133112,570.471353 L452.853112,570.471353 Z M475.023112,579.951353 L475.023112,582.951353 L465.483112,582.951353 L465.483112,590.151353 L455.013112,590.151353 L455.013112,587.121353 L460.593112,587.121353 L460.593112,582.951353 L447.963112,582.951353 L447.963112,579.951353 L460.983112,579.951353 L463.203112,576.411353 L453.873112,576.411353 L453.873112,573.381353 L468.933112,573.381353 L468.933112,575.061353 L465.933112,579.951353 L475.023112,579.951353 Z M484.239234,563.331353 L484.239234,568.101353 L485.469234,568.101353 L485.469234,571.101353 L484.239234,571.101353 L484.239234,577.611353 L485.469234,577.611353 L485.469234,580.611353 L484.239234,580.611353 L484.239234,590.091353 L478.269234,590.091353 L478.269234,587.091353 L479.709234,587.091353 L479.709234,580.611353 L478.209234,580.611353 L478.209234,577.611353 L479.709234,577.611353 L479.709234,571.101353 L478.209234,571.101353 L478.209234,568.101353 L479.709234,568.101353 L479.709234,563.331353 L484.239234,563.331353 Z M499.809234,582.171353 L497.889234,582.171353 L497.889234,589.851353 L493.389234,589.851353 L493.389234,582.171353 L491.499234,582.171353 L491.499234,579.171353 L493.389234,579.171353 L493.389234,574.401353 L491.499234,574.401353 L491.499234,571.401353 L493.389234,571.401353 L493.389234,566.991353 L497.889234,567.591353 L497.889234,571.401353 L499.809234,571.401353 L499.809234,574.401353 L497.889234,574.401353 L497.889234,579.171353 L499.809234,579.171353 L499.809234,582.171353 Z M486.309234,563.721353 L504.969234,563.721353 L504.969234,590.091353 L499.149234,590.091353 L499.149234,587.091353 L500.469234,587.091353 L500.469234,566.721353 L486.309234,566.721353 L486.309234,563.721353 Z M486.309234,590.091353 L486.309234,566.991353 L490.809234,567.591353 L490.809234,590.091353 L486.309234,590.091353 Z M508.395357,563.661353 L535.815357,563.661353 L535.815357,566.481353 L516.195357,566.481353 L515.835357,567.771353 L534.795357,567.771353 L534.795357,574.821353 L523.695357,574.821353 L523.695357,572.031353 L529.995357,572.031353 L529.995357,570.561353 L514.995357,570.561353 L513.675357,575.061353 L508.575357,575.061353 L511.095357,566.481353 L508.395357,566.481353 L508.395357,563.661353 Z M525.585357,586.161353 L525.585357,587.421353 L535.785357,587.421353 L535.785357,590.001353 L517.425357,590.001353 L513.945357,588.081353 L513.105357,590.151353 L508.155357,590.151353 L511.065357,583.041353 L516.015357,583.041353 L515.295357,584.781353 L520.035357,587.421353 L520.485357,587.421353 L520.485357,582.591353 L525.585357,582.861353 L525.585357,583.581353 L534.645357,583.581353 L534.645357,586.161353 L525.585357,586.161353 Z M509.415357,578.571353 L514.485357,578.931353 L514.485357,579.741353 L529.725357,579.741353 L529.725357,578.361353 L509.415357,578.361353 L509.415357,575.871353 L534.795357,575.871353 L534.795357,582.231353 L509.415357,582.231353 L509.415357,578.571353 Z M544.521479,563.541353 L544.521479,568.341353 L539.421479,568.341353 L539.421479,563.541353 L544.521479,563.541353 Z M544.521479,570.351353 L544.521479,586.881353 L545.811479,586.881353 L545.811479,589.881353 L539.511479,589.881353 L539.511479,573.351353 L538.341479,573.351353 L538.341479,570.351353 L544.521479,570.351353 Z M564.591479,563.571353 L564.591479,569.751353 L566.031479,569.751353 L566.031479,572.751353 L559.881479,572.751353 L559.881479,566.571353 L552.651479,566.571353 L552.651479,572.751353 L547.971479,572.751353 L547.971479,563.571353 L564.591479,563.571353 Z M564.921479,582.471353 L561.381479,584.121353 L565.761479,586.071353 L565.761479,590.601353 L556.491479,586.371353 L547.341479,590.601353 L547.341479,586.281353 L551.751479,584.211353 L547.911479,582.471353 L547.911479,577.671353 L552.711479,578.031353 L552.711479,580.281353 L556.521479,581.991353 L560.121479,580.281353 L560.121479,577.371353 L547.911479,577.371353 L547.911479,574.371353 L564.921479,574.371353 L564.921479,582.471353 Z M596.697602,572.631353 L596.697602,575.631353 L589.707602,575.631353 L589.707602,590.451353 L584.607602,590.451353 L584.607602,575.631353 L577.617602,575.631353 L577.617602,572.631353 L584.607602,572.631353 L584.607602,563.181353 L589.707602,563.181353 L589.707602,572.631353 L596.697602,572.631353 Z M575.277602,563.541353 L575.277602,568.341353 L570.177602,568.341353 L570.177602,563.541353 L575.277602,563.541353 Z M575.277602,570.351353 L575.277602,587.031353 L578.367602,587.031353 L578.367602,590.031353 L570.267602,590.031353 L570.267602,573.351353 L568.647602,573.351353 L568.647602,570.351353 L575.277602,570.351353 Z M620.763724,567.351353 L620.763724,570.981353 L626.253724,570.981353 L626.253724,588.501353 L622.143724,588.501353 L622.143724,574.071353 L620.763724,574.071353 L620.763724,590.421353 L616.083724,590.421353 L616.083724,574.071353 L614.703724,574.071353 L614.703724,588.501353 L610.593724,588.501353 L610.593724,570.981353 L616.083724,570.981353 L616.083724,566.991353 L620.763724,567.351353 Z M605.103724,590.421353 L605.103724,563.181353 L609.273724,563.181353 L609.273724,590.421353 L605.103724,590.421353 Z M599.763724,588.051353 L599.763724,565.251353 L603.783724,565.251353 L603.783724,588.051353 L599.763724,588.051353 Z M610.233724,563.721353 L626.643724,563.721353 L626.643724,566.721353 L610.233724,566.721353 L610.233724,563.721353 Z" id="introduction-copy"></path>
        </g>
    </g>
</svg>