<?xml version="1.0" encoding="UTF-8"?>
<svg width="249px" height="65px" viewBox="0 0 249 65" version="1.1" xmlns="http://www.w3.org/2000/svg" xmlns:xlink="http://www.w3.org/1999/xlink">
    <!-- Generator: Sketch 50.2 (55047) - http://www.bohemiancoding.com/sketch -->
    <title>Group 2</title>
    <desc>Created with Sketch.</desc>
    <defs></defs>
    <g id="Site" stroke="none" stroke-width="1" fill="none" fill-rule="evenodd" fill-opacity="0.4">
        <g id="Poster-Copy-5" transform="translate(-395.000000, -530.000000)" fill="#002187">
            <g id="Group-2" transform="translate(395.000000, 530.000000)">
                <path d="M41.914418,55.164323 L41.914418,57.964323 L32.814418,57.964323 L41.634418,60.680323 L41.634418,64.096323 L29.258418,60.148323 L16.854418,64.096323 L16.854418,60.680323 L25.674418,57.964323 L16.602418,57.964323 L16.602418,55.164323 L26.878418,55.164323 L26.878418,53.316323 L31.638418,53.736323 L31.638418,55.164323 L41.914418,55.164323 Z M41.634418,50.096323 L41.634418,52.896323 L16.882418,52.896323 L16.882418,50.096323 L26.878418,50.096323 L26.878418,48.276323 L17.358418,48.276323 L17.358418,45.476323 L26.878418,45.476323 L26.878418,43.796323 L31.638418,44.160323 L31.638418,45.476323 L41.158418,45.476323 L41.158418,48.276323 L31.638418,48.276323 L31.638418,50.096323 L41.634418,50.096323 Z M41.634418,40.716323 L41.634418,43.516323 L16.882418,43.516323 L16.882418,40.716323 L21.054418,40.716323 L20.046418,38.448323 L24.750418,38.448323 L25.758418,40.716323 L32.758418,40.716323 L33.766418,38.448323 L38.470418,38.448323 L37.462418,40.716323 L41.634418,40.716323 Z M53.0833069,45.252323 L53.0833069,49.284323 L48.6033069,49.284323 L48.6033069,42.452323 L51.4313069,42.452323 L50.4513069,38.756323 L55.1553069,38.756323 L56.1353069,42.452323 L59.0193069,42.452323 L58.0393069,38.756323 L62.7153069,38.756323 L63.6953069,42.452323 L65.9073069,42.452323 L67.1953069,38.756323 L71.8993069,38.756323 L70.5833069,42.452323 L73.6913069,42.452323 L73.6913069,49.284323 L69.2113069,49.284323 L69.2113069,45.252323 L53.0833069,45.252323 Z M73.7753069,54.100323 L73.7753069,56.900323 L64.8713069,56.900323 L64.8713069,63.620323 L55.0993069,63.620323 L55.0993069,60.792323 L60.3073069,60.792323 L60.3073069,56.900323 L48.5193069,56.900323 L48.5193069,54.100323 L60.6713069,54.100323 L62.7433069,50.796323 L54.0353069,50.796323 L54.0353069,47.968323 L68.0913069,47.968323 L68.0913069,49.536323 L65.2913069,54.100323 L73.7753069,54.100323 Z M105.300196,39.652323 L105.300196,48.360323 L90.4321957,48.360323 L90.4321957,63.648323 L86.9041957,63.648323 L86.9041957,42.760323 L91.4121957,43.180323 L91.4121957,45.532323 L100.792196,45.532323 L100.792196,42.480323 L86.9041957,42.480323 L86.9041957,39.652323 L93.4841957,39.652323 L93.4841957,38.700323 L98.7481957,38.700323 L98.7481957,39.652323 L105.300196,39.652323 Z M91.3001957,49.872323 L105.328196,49.872323 L105.328196,63.648323 L102.220196,63.648323 L102.220196,59.672323 L101.324196,59.672323 L101.324196,63.424323 L98.7761957,63.424323 L98.7761957,59.672323 L97.8521957,59.672323 L97.8521957,63.424323 L95.3321957,63.424323 L95.3321957,59.672323 L94.4081957,59.672323 L94.4081957,63.424323 L91.3001957,63.424323 L91.3001957,52.980323 L94.4081957,53.400323 L94.4081957,56.872323 L95.3321957,56.872323 L95.3321957,52.952323 L97.8521957,53.400323 L97.8521957,56.872323 L98.7761957,56.872323 L98.7761957,52.952323 L101.324196,53.400323 L101.324196,56.872323 L102.220196,56.872323 L102.220196,52.700323 L91.3001957,52.700323 L91.3001957,49.872323 Z M79.8481957,48.808323 L81.8921957,38.672323 L86.3721957,38.672323 L84.4681957,48.808323 L79.8481957,48.808323 Z M81.2761957,63.620323 L81.2761957,49.088323 L85.7561957,49.088323 L85.7561957,63.620323 L81.2761957,63.620323 Z M136.041085,60.708323 L137.721085,60.708323 L137.721085,63.480323 L131.645085,63.480323 L131.645085,44.524323 L128.817085,44.524323 L128.117085,52.672323 L130.301085,53.064323 L130.301085,56.844323 L127.781085,56.396323 L127.137085,63.620323 L122.657085,63.620323 L123.385085,55.612323 L121.537085,55.276323 L121.537085,51.496323 L123.693085,51.888323 L124.337085,44.524323 L121.481085,44.524323 L121.481085,41.724323 L124.589085,41.724323 L124.869085,38.420323 L129.349085,38.420323 L129.069085,41.724323 L136.041085,41.724323 L136.041085,60.708323 Z M118.821085,38.588323 L118.821085,43.040323 L120.585085,43.040323 L120.585085,45.840323 L118.821085,45.840323 L118.821085,51.916323 L120.585085,51.916323 L120.585085,54.716323 L118.821085,54.716323 L118.821085,63.564323 L112.297085,63.564323 L112.297085,60.764323 L114.201085,60.764323 L114.201085,54.716323 L112.241085,54.716323 L112.241085,51.916323 L114.201085,51.916323 L114.201085,45.840323 L112.241085,45.840323 L112.241085,43.040323 L114.201085,43.040323 L114.201085,38.588323 L118.821085,38.588323 Z M149.449973,38.784323 L149.449973,43.264323 L144.689973,43.264323 L144.689973,38.784323 L149.449973,38.784323 Z M149.449973,45.140323 L149.449973,60.568323 L150.653973,60.568323 L150.653973,63.368323 L144.773973,63.368323 L144.773973,47.940323 L143.681973,47.940323 L143.681973,45.140323 L149.449973,45.140323 Z M168.181973,38.812323 L168.181973,44.580323 L169.525973,44.580323 L169.525973,47.380323 L163.785973,47.380323 L163.785973,41.612323 L157.037973,41.612323 L157.037973,47.380323 L152.669973,47.380323 L152.669973,38.812323 L168.181973,38.812323 Z M168.489973,56.452323 L165.185973,57.992323 L169.273973,59.812323 L169.273973,64.040323 L160.621973,60.092323 L152.081973,64.040323 L152.081973,60.008323 L156.197973,58.076323 L152.613973,56.452323 L152.613973,51.972323 L157.093973,52.308323 L157.093973,54.408323 L160.649973,56.004323 L164.009973,54.408323 L164.009973,51.692323 L152.613973,51.692323 L152.613973,48.892323 L168.489973,48.892323 L168.489973,56.452323 Z M201.750862,47.268323 L201.750862,50.068323 L195.226862,50.068323 L195.226862,63.900323 L190.466862,63.900323 L190.466862,50.068323 L183.942862,50.068323 L183.942862,47.268323 L190.466862,47.268323 L190.466862,38.448323 L195.226862,38.448323 L195.226862,47.268323 L201.750862,47.268323 Z M181.758862,38.784323 L181.758862,43.264323 L176.998862,43.264323 L176.998862,38.784323 L181.758862,38.784323 Z M181.758862,45.140323 L181.758862,60.708323 L184.642862,60.708323 L184.642862,63.508323 L177.082862,63.508323 L177.082862,47.940323 L175.570862,47.940323 L175.570862,45.140323 L181.758862,45.140323 Z M227.815751,42.340323 L227.815751,45.728323 L232.939751,45.728323 L232.939751,62.080323 L229.103751,62.080323 L229.103751,48.612323 L227.815751,48.612323 L227.815751,63.872323 L223.447751,63.872323 L223.447751,48.612323 L222.159751,48.612323 L222.159751,62.080323 L218.323751,62.080323 L218.323751,45.728323 L223.447751,45.728323 L223.447751,42.004323 L227.815751,42.340323 Z M213.199751,63.872323 L213.199751,38.448323 L217.091751,38.448323 L217.091751,63.872323 L213.199751,63.872323 Z M208.215751,61.660323 L208.215751,40.380323 L211.967751,40.380323 L211.967751,61.660323 L208.215751,61.660323 Z M217.987751,38.952323 L233.303751,38.952323 L233.303751,41.752323 L217.987751,41.752323 L217.987751,38.952323 Z M243.71664,43.432323 L243.71664,38.700323 L248.61664,38.700323 L248.61664,42.200323 L246.58064,46.832323 L244.41664,46.832323 L244.94864,43.432323 L243.71664,43.432323 Z" id="美学偏执设计师’"></path>
                <path d="M5.756888,8.83232303 L0.856888,8.83232303 L0.856888,5.33232303 L2.892888,0.700323033 L5.056888,0.700323033 L4.524888,4.10032303 L5.756888,4.10032303 L5.756888,8.83232303 Z M26.837777,5.79632303 L21.517777,11.928323 L16.225777,11.928323 L21.545777,5.79632303 L26.837777,5.79632303 Z M42.517777,25.788323 L36.385777,25.788323 L29.245777,19.348323 L22.133777,25.788323 L16.001777,25.788323 L24.401777,18.200323 L17.905777,12.572323 L24.037777,12.572323 L29.245777,17.080323 L34.481777,12.572323 L40.613777,12.572323 L34.089777,18.200323 L42.517777,25.788323 Z M31.569777,5.79632303 L36.861777,5.79632303 L42.181777,11.928323 L36.889777,11.928323 L31.569777,5.79632303 Z M41.957777,2.21232303 L41.957777,5.01232303 L16.589777,5.01232303 L16.589777,2.21232303 L26.753777,2.21232303 L26.753777,0.168323033 L31.793777,0.168323033 L31.793777,2.21232303 L41.957777,2.21232303 Z M74.882666,25.844323 L67.546666,25.844323 L61.134666,21.224323 L54.694666,25.844323 L47.358666,25.844323 L57.382666,18.536323 L49.570666,12.908323 L49.570666,4.28432303 L54.442666,4.78832303 L54.442666,10.892323 L61.134666,15.792323 L67.826666,10.892323 L67.826666,3.94832303 L49.598666,3.94832303 L49.598666,0.896323033 L72.698666,0.896323033 L72.698666,12.908323 L64.886666,18.536323 L74.882666,25.844323 Z M58.922666,5.26432303 L63.402666,5.26432303 L63.402666,10.696323 L58.922666,10.696323 L58.922666,5.26432303 Z M80.787555,17.276323 L80.787555,14.476323 L92.463555,14.476323 L90.979555,25.480323 L81.683555,25.480323 L81.683555,22.680323 L87.171555,22.680323 L87.899555,17.276323 L80.787555,17.276323 Z M84.763555,13.524323 L84.763555,10.416323 L88.235555,10.416323 L88.235555,13.524323 L84.763555,13.524323 Z M86.555555,4.53632303 L83.783555,12.488323 L79.807555,12.488323 L84.259555,0.644323033 L88.767555,0.644323033 L93.303555,12.488323 L89.215555,12.488323 L86.555555,4.53632303 Z M105.539555,19.460323 L102.487555,19.460323 L102.487555,9.35232303 L96.551555,9.35232303 L96.551555,19.460323 L93.527555,19.460323 L93.527555,6.55232303 L97.279555,6.55232303 L97.279555,3.89232303 L101.759555,4.28432303 L101.759555,6.55232303 L105.539555,6.55232303 L105.539555,19.460323 Z M105.819555,0.840323033 L105.819555,3.64032303 L93.079555,3.64032303 L93.079555,0.840323033 L105.819555,0.840323033 Z M101.507555,18.592323 L105.959555,25.564323 L101.563555,25.564323 L99.519555,22.148323 L97.503555,25.564323 L93.079555,25.564323 L97.531555,18.592323 L97.531555,9.88432303 L101.507555,10.416323 L101.507555,18.592323 Z M120.600444,11.872323 L120.600444,9.07232303 L129.840444,9.07232303 L129.840444,20.132323 L120.600444,20.132323 L120.600444,12.152323 L124.380444,12.712323 L124.380444,17.332323 L126.060444,17.332323 L126.060444,11.872323 L120.600444,11.872323 Z M137.848444,6.94432303 L134.768444,6.94432303 L135.832444,16.352323 L137.792444,15.288323 L137.792444,19.264323 L136.252444,20.076323 L136.924444,25.900323 L132.808444,25.900323 L132.360444,22.176323 L130.568444,23.184323 L130.568444,19.208323 L131.940444,18.452323 L130.624444,6.94432303 L120.600444,6.94432303 L120.600444,4.11632303 L130.316444,4.11632303 L129.896444,0.448323033 L134.012444,0.448323033 L134.432444,4.11632303 L137.848444,4.11632303 L137.848444,6.94432303 Z M120.600444,25.340323 L120.600444,22.512323 L129.840444,22.512323 L129.840444,25.340323 L120.600444,25.340323 Z M137.344444,0.868323033 L137.344444,3.47232303 L135.020444,3.47232303 L135.020444,0.868323033 L137.344444,0.868323033 Z M112.340444,25.480323 L112.340444,22.680323 L119.844444,22.680323 L119.844444,25.480323 L112.340444,25.480323 Z M118.332444,0.616323033 L118.332444,6.32832303 L119.844444,6.32832303 L119.844444,9.12832303 L118.332444,9.12832303 L118.332444,22.316323 L113.852444,21.896323 L113.852444,9.12832303 L112.340444,9.12832303 L112.340444,6.32832303 L113.852444,6.32832303 L113.852444,0.616323033 L118.332444,0.616323033 Z M169.905333,12.068323 L169.905333,14.868323 L166.461333,14.868323 L166.461333,25.760323 L161.701333,25.760323 L161.701333,14.868323 L153.189333,14.868323 L152.377333,25.760323 L147.477333,25.760323 L148.289333,14.868323 L144.313333,14.868323 L144.313333,12.068323 L148.401333,12.068323 L148.401333,4.08832303 L153.161333,4.50832303 L153.161333,12.068323 L161.701333,12.068323 L161.701333,4.08832303 L166.461333,4.50832303 L166.461333,12.068323 L169.905333,12.068323 Z M169.429333,0.896323033 L169.429333,3.69632303 L144.789333,3.69632303 L144.789333,0.896323033 L169.429333,0.896323033 Z M199.246222,0.784323033 L199.246222,4.03232303 L194.766222,4.03232303 L194.766222,0.784323033 L199.246222,0.784323033 Z M201.766222,25.564323 L196.250222,25.564323 L192.638222,22.008323 L188.438222,25.564323 L182.502222,25.564323 L189.922222,19.292323 L184.462222,13.916323 L189.978222,13.916323 L192.890222,16.772323 L196.110222,14.056323 L196.110222,12.460323 L184.070222,12.460323 L181.130222,25.648323 L176.650222,25.648323 L180.682222,7.50432303 L176.314222,7.50432303 L177.434222,0.868323033 L181.410222,0.868323033 L180.738222,4.70432303 L182.194222,4.70432303 L182.922222,0.644323033 L187.458222,0.644323033 L186.730222,4.70432303 L201.710222,4.70432303 L201.710222,7.50432303 L185.162222,7.50432303 L184.686222,9.66032303 L200.534222,9.66032303 L200.534222,15.344323 L195.606222,19.488323 L201.766222,25.564323 Z M233.767111,10.724323 L223.491111,10.724323 L218.199111,13.328323 L232.031111,13.328323 L232.031111,25.508323 L212.067111,25.508323 L212.067111,16.408323 L216.407111,16.940323 L216.407111,22.736323 L227.691111,22.736323 L227.691111,16.072323 L212.599111,16.072323 L208.399111,18.144323 L208.399111,14.504323 L216.155111,10.724323 L208.679111,10.724323 L208.679111,7.92432303 L215.567111,7.92432303 L215.567111,5.43232303 L209.827111,5.43232303 L209.827111,2.63232303 L215.567111,2.63232303 L215.567111,0.532323033 L220.047111,0.532323033 L220.047111,2.63232303 L225.395111,2.63232303 L225.395111,5.43232303 L220.047111,5.43232303 L220.047111,7.92432303 L221.419111,7.92432303 L233.487111,1.48432303 L233.487111,5.26432303 L228.195111,7.92432303 L233.767111,7.92432303 L233.767111,10.724323 Z M217.163111,18.032323 L226.907111,18.032323 L226.907111,20.804323 L217.163111,20.804323 L217.163111,18.032323 Z" id="‘交叉领域开发者"></path>
            </g>
        </g>
    </g>
</svg>