<?xml version="1.0" encoding="UTF-8"?>
<svg width="280px" height="76px" viewBox="0 0 280 76" version="1.1" xmlns="http://www.w3.org/2000/svg" xmlns:xlink="http://www.w3.org/1999/xlink">
    <!-- Generator: Sketch 50.2 (55047) - http://www.bohemiancoding.com/sketch -->
    <title>NeoIntroduction</title>
    <desc>Created with Sketch.</desc>
    <defs></defs>
    <g id="Site" stroke="none" stroke-width="1" fill="none" fill-rule="evenodd" fill-opacity="0.4">
        <g id="Poster-Copy-5" transform="translate(-382.000000, -519.000000)" fill="#002187">
            <g id="Group-2" transform="translate(382.000000, 519.000000)">
                <path d="M32.666418,6.2873528 L32.666418,8.9153528 L1.77841802,8.9153528 L1.77841802,6.2873528 L16.718418,6.2873528 C16.214418,5.0273528 15.206418,3.2633528 14.342418,1.8593528 L16.826418,0.995352797 C17.834418,2.4353528 18.986418,4.4153528 19.490418,5.6393528 L17.870418,6.2873528 L32.666418,6.2873528 Z M21.506418,11.5073528 L23.558418,9.9593528 C26.834418,12.1913528 30.866418,15.4313528 32.810418,17.7353528 L30.614418,19.4633528 C28.814418,17.1953528 24.818418,13.7753528 21.506418,11.5073528 Z M10.778418,10.0313528 L13.334418,11.0393528 C10.922418,14.0993528 7.14241802,17.3033528 3.97441802,19.3553528 C3.50641802,18.8153528 2.49841802,17.8073528 1.92241802,17.3393528 C5.09041802,15.5393528 8.61841802,12.7673528 10.778418,10.0313528 Z M22.658418,16.0793528 L25.394418,16.8353528 C23.918418,20.5073528 21.902418,23.5313528 19.382418,25.9433528 C23.090418,28.7513528 27.842418,30.6593528 33.602418,31.5593528 C33.026418,32.1353528 32.306418,33.2153528 31.946418,33.9713528 C26.006418,32.8193528 21.182418,30.7673528 17.366418,27.6713528 C13.406418,30.8033528 8.47441802,32.8193528 2.67841802,34.2953528 C2.39041802,33.6473528 1.59841802,32.4593528 1.05841802,31.8833528 C6.81841802,30.6953528 11.678418,28.7873528 15.422418,25.9073528 C12.938418,23.4953528 11.030418,20.5073528 9.59041802,17.0153528 L11.966418,16.2953528 C13.190418,19.3553528 15.026418,22.0553528 17.366418,24.2513528 C19.670418,22.0553528 21.470418,19.3553528 22.658418,16.0793528 Z M61.966418,14.8553528 L60.022418,16.5113528 C58.906418,14.9273528 56.422418,12.4433528 54.334418,10.7153528 L56.170418,9.2753528 C58.222418,10.8953528 60.778418,13.2713528 61.966418,14.8553528 Z M67.942418,7.3673528 L49.078418,7.3673528 C51.094418,13.4873528 54.118418,18.6713528 58.366418,22.7033528 C62.614418,18.8153528 65.926418,13.7393528 67.942418,7.3673528 Z M69.454418,4.6313528 L71.254418,5.5313528 C69.094418,13.5593528 65.278418,19.7513528 60.382418,24.4313528 C64.270418,27.5633528 69.058418,29.8313528 74.890418,31.1273528 C74.278418,31.6673528 73.558418,32.8553528 73.162418,33.5393528 C67.150418,32.0993528 62.254418,29.6153528 58.258418,26.2673528 C53.794418,29.9393528 48.646418,32.5313528 43.138418,34.2593528 C42.850418,33.5393528 42.058418,32.3513528 41.482418,31.8113528 C46.918418,30.2633528 51.994418,27.8513528 56.314418,24.4673528 C51.814418,20.0393528 48.646418,14.2793528 46.414418,7.3673528 L43.822418,7.3673528 L43.822418,4.7393528 L69.094418,4.7393528 L69.454418,4.6313528 Z M100.374418,9.5273528 L104.982418,9.5273528 C105.414418,8.4113528 105.918418,6.9353528 106.314418,5.7113528 L99.474418,5.7113528 L99.474418,3.3353528 L115.314418,3.3353528 L115.314418,5.7113528 L108.834418,5.7113528 C108.330418,6.9713528 107.826418,8.3753528 107.358418,9.5273528 L114.306418,9.5273528 L114.306418,26.2673528 L111.822418,26.2673528 L111.822418,11.5793528 L102.786418,11.5793528 L102.786418,26.3393528 L100.374418,26.3393528 L100.374418,9.5273528 Z M99.222418,11.9393528 L97.566418,13.8113528 C96.234418,11.8313528 93.606418,8.7353528 91.194418,6.2513528 C89.394418,9.5273528 87.126418,12.5873528 84.426418,14.9633528 C84.030418,14.4953528 83.166418,13.7393528 82.590418,13.3433528 C86.226418,10.2833528 89.286418,5.5313528 90.870418,1.2833528 L93.210418,1.9673528 C92.922418,2.6873528 92.598418,3.4073528 92.274418,4.1633528 C94.830418,6.6473528 97.818418,9.8873528 99.222418,11.9393528 Z M88.710418,11.7953528 L90.474418,10.7513528 C91.806418,12.0473528 93.282418,13.7393528 94.038418,14.8553528 L92.238418,16.1153528 C91.518418,14.9273528 90.006418,13.0913528 88.710418,11.7953528 Z M95.982418,17.4113528 L97.674418,18.4913528 C96.270418,21.9113528 93.714418,26.0873528 91.806418,28.7873528 C93.066418,30.0473528 94.218418,31.3073528 94.938418,32.2793528 L93.030418,33.8273528 C91.482418,31.7033528 88.242418,28.3913528 85.542418,26.0513528 L87.306418,24.6833528 C88.206418,25.4393528 89.142418,26.2673528 90.114418,27.1673528 C91.518418,25.1873528 93.210418,22.3433528 94.326418,19.9313528 L85.002418,19.9313528 L85.002418,17.5553528 L95.550418,17.5553528 L95.982418,17.4113528 Z M106.206418,13.1993528 L108.474418,13.1993528 C108.366418,26.3753528 107.646418,31.5593528 98.502418,34.4033528 C98.286418,33.8273528 97.674418,32.9633528 97.170418,32.4953528 C105.702418,30.0113528 106.098418,25.6553528 106.206418,13.1993528 Z M107.358418,27.9953528 L108.942418,26.5913528 C111.318418,28.3553528 114.414418,30.9113528 115.890418,32.5313528 L114.234418,34.1873528 C112.758418,32.5313528 109.734418,29.8673528 107.358418,27.9953528 Z M133.562418,22.1633528 L134.282418,24.5393528 C131.006418,26.2313528 127.478418,27.9953528 124.706418,29.3633528 L123.662418,26.7353528 C124.814418,26.2673528 126.182418,25.6553528 127.694418,24.9713528 L127.694418,12.5873528 L123.914418,12.5873528 L123.914418,10.0673528 L127.694418,10.0673528 L127.694418,1.7513528 L130.214418,1.7513528 L130.214418,10.0673528 L133.490418,10.0673528 L133.490418,12.5873528 L130.214418,12.5873528 L130.214418,23.7833528 C131.294418,23.2793528 132.446418,22.7033528 133.562418,22.1633528 Z M145.550418,24.4313528 L145.802418,26.6993528 C141.518418,27.9593528 137.018418,29.2553528 133.598418,30.2273528 L132.878418,27.7073528 C136.118418,26.9873528 140.906418,25.6553528 145.550418,24.4313528 Z M141.878418,20.6873528 L141.878418,14.6393528 L137.234418,14.6393528 L137.234418,20.6873528 L141.878418,20.6873528 Z M135.146418,12.4793528 L144.074418,12.4793528 L144.074418,22.8473528 L135.146418,22.8473528 L135.146418,12.4793528 Z M153.182418,12.4793528 L155.630418,12.9473528 C154.334418,17.6633528 152.606418,21.8033528 150.374418,25.3673528 C151.238418,29.2913528 152.318418,31.6313528 153.650418,31.6313528 C154.334418,31.6313528 154.658418,30.2273528 154.802418,26.4833528 C155.342418,27.0953528 156.134418,27.5993528 156.710418,27.8873528 C156.314418,32.6753528 155.594418,34.1873528 153.326418,34.1873528 C151.130418,34.1873528 149.582418,31.8833528 148.466418,28.0313528 C146.702418,30.3353528 144.650418,32.2793528 142.382418,33.8993528 C141.986418,33.4313528 140.978418,32.5673528 140.402418,32.1353528 C143.318418,30.2993528 145.730418,27.8513528 147.710418,25.0073528 C146.882418,20.6873528 146.414418,15.1793528 146.198418,9.0953528 L134.102418,9.0953528 L134.102418,6.6113528 L146.126418,6.6113528 C146.054418,4.8833528 146.018418,3.1193528 146.018418,1.3553528 L148.610418,1.3553528 C148.610418,3.1553528 148.610418,4.9193528 148.646418,6.6113528 L154.298418,6.6113528 C153.398418,5.5313528 151.562418,3.9113528 150.014418,2.7593528 L151.562418,1.4273528 C153.146418,2.4713528 155.054418,4.0193528 155.954418,5.1353528 L154.370418,6.6113528 L156.278418,6.6113528 L156.278418,9.0953528 L148.718418,9.0953528 C148.862418,13.8833528 149.222418,18.2033528 149.726418,21.7313528 C151.202418,18.9233528 152.318418,15.8633528 153.182418,12.4793528 Z M176.542418,16.4393528 L186.550418,16.4393528 L186.550418,6.2513528 L176.542418,6.2513528 L176.542418,16.4393528 Z M197.278418,16.4393528 L197.278418,19.0313528 L189.286418,19.0313528 L189.286418,34.2593528 L186.550418,34.2593528 L186.550418,19.0313528 L176.434418,19.0313528 C175.930418,24.6473528 174.094418,30.2273528 167.506418,34.3673528 C167.002418,33.7553528 166.030418,32.8193528 165.382418,32.3873528 C171.358418,28.7153528 173.194418,23.8913528 173.698418,19.0313528 L165.274418,19.0313528 L165.274418,16.4393528 L173.806418,16.4393528 C173.842418,15.8993528 173.842418,15.4313528 173.842418,14.8913528 L173.842418,6.2513528 L166.606418,6.2513528 L166.606418,3.6953528 L196.162418,3.6953528 L196.162418,6.2513528 L189.286418,6.2513528 L189.286418,16.4393528 L197.278418,16.4393528 Z M235.146418,6.9353528 L232.986418,8.4113528 C232.014418,7.0433528 229.998418,4.7753528 228.450418,3.1193528 L230.502418,1.8233528 C232.050418,3.4073528 234.138418,5.6393528 235.146418,6.9353528 Z M230.934418,18.4553528 L219.666418,18.4553528 C221.034418,21.2993528 222.978418,23.8193528 225.426418,25.8713528 C227.730418,23.8553528 229.638418,21.3713528 230.934418,18.4553528 Z M232.734418,15.7193528 L234.534418,16.6193528 C233.058418,21.1553528 230.646418,24.7193528 227.550418,27.4913528 C230.682418,29.6153528 234.462418,31.1273528 238.854418,31.9553528 C238.278418,32.4953528 237.558418,33.5753528 237.198418,34.3313528 C232.626418,33.3233528 228.702418,31.5953528 225.498418,29.1833528 C222.186418,31.5593528 218.406418,33.2153528 214.410418,34.2953528 C214.122418,33.6113528 213.474418,32.5673528 213.006418,31.9913528 C216.714418,31.1273528 220.314418,29.6153528 223.374418,27.4553528 C221.250418,25.4753528 219.450418,23.1353528 218.010418,20.4353528 C215.526418,24.8633528 212.142418,28.5353528 207.498418,31.4153528 C207.102418,30.8033528 206.166418,29.8313528 205.518418,29.3633528 C212.070418,25.3673528 216.030418,19.4993528 218.406418,12.0473528 L213.402418,12.0473528 C211.134418,12.0473528 209.910418,12.2633528 209.586418,12.6593528 C209.406418,12.0833528 208.974418,10.7513528 208.686418,10.1393528 C209.190418,9.9953528 209.586418,9.4913528 209.982418,8.6993528 C210.414418,7.9793528 211.746418,5.0633528 212.394418,2.3273528 L215.202418,2.8673528 C214.590418,5.1713528 213.546418,7.5833528 212.610418,9.4553528 L219.090418,9.4553528 C219.774418,6.8633528 220.278418,4.1273528 220.602418,1.2113528 L223.590418,1.6433528 C223.194418,4.4153528 222.726418,7.0073528 222.150418,9.4553528 L237.666418,9.4553528 L237.630418,12.0473528 L221.430418,12.0473528 C221.034418,13.3433528 220.602418,14.6393528 220.170418,15.8633528 L232.230418,15.8633528 L232.734418,15.7193528 Z M262.286418,12.8393528 L264.806418,12.8393528 C266.750418,11.3993528 268.586418,9.8513528 270.278418,8.2313528 L262.286418,8.2313528 L262.286418,12.8393528 Z M272.042418,24.8273528 L272.042418,21.2633528 L257.462418,21.2633528 L257.462418,24.8273528 L272.042418,24.8273528 Z M257.462418,30.6953528 L272.042418,30.6953528 L272.042418,26.9513528 L257.462418,26.9513528 L257.462418,30.6953528 Z M279.170418,15.2513528 L265.706418,15.2513528 C263.834418,16.5833528 261.890418,17.8433528 259.910418,18.9953528 L274.778418,18.9953528 L274.778418,34.0433528 L272.042418,34.0433528 L272.042418,33.0353528 L257.462418,33.0353528 L257.462418,34.1873528 L254.834418,34.1873528 L254.834418,21.7313528 C252.674418,22.7753528 250.442418,23.7473528 248.246418,24.5753528 C247.922418,23.9993528 247.058418,22.9193528 246.554418,22.3793528 C251.774418,20.5433528 256.814418,18.1673528 261.350418,15.2513528 L247.346418,15.2513528 L247.346418,12.8393528 L259.658418,12.8393528 L259.658418,8.2313528 L250.478418,8.2313528 L250.478418,5.8553528 L259.658418,5.8553528 L259.658418,1.3553528 L262.286418,1.3553528 L262.286418,5.8553528 L271.178418,5.8553528 L271.178418,7.3313528 C272.690418,5.8193528 274.058418,4.2353528 275.282418,2.5793528 L277.550418,3.8033528 C275.030418,7.1153528 272.078418,10.1393528 268.802418,12.8393528 L279.170418,12.8393528 L279.170418,15.2513528 Z" id="introduction-copy"></path>
                <path d="M32.882418,65.224323 L19.778418,65.224323 C22.370418,69.220323 27.086418,71.488323 33.638418,72.280323 C33.098418,72.892323 32.342418,73.972323 32.018418,74.764323 C24.746418,73.576323 19.886418,70.696323 17.114418,65.512323 C15.314418,70.228323 11.462418,73.180323 2.24641802,74.764323 C2.03041802,74.080323 1.34641802,72.964323 0.842418021,72.352323 C9.12241802,71.164323 12.650418,68.896323 14.270418,65.224323 L2.31841802,65.224323 L2.31841802,62.812323 L15.062418,62.812323 C15.278418,61.948323 15.422418,61.012323 15.530418,60.040323 L1.41841802,60.040323 L1.41841802,57.664323 L15.854418,57.664323 L15.854418,54.640323 L4.65841802,54.640323 L4.65841802,52.300323 L15.854418,52.300323 L15.854418,49.384323 L2.89441802,49.384323 L2.89441802,46.972323 L10.274418,46.972323 C9.69841802,45.712323 8.58241802,44.056323 7.50241802,42.796323 L9.80641802,41.860323 C11.138418,43.228323 12.398418,45.100323 12.974418,46.396323 L11.678418,46.972323 L21.146418,46.972323 C22.226418,45.496323 23.486418,43.372323 24.242418,41.860323 L26.978418,42.688323 C26.114418,44.164323 25.034418,45.712323 24.098418,46.972323 L31.658418,46.972323 L31.658418,49.384323 L18.518418,49.384323 L18.518418,52.300323 L30.038418,52.300323 L30.038418,54.640323 L18.518418,54.640323 L18.518418,57.664323 L33.314418,57.664323 L33.314418,60.040323 L18.302418,60.040323 C18.194418,61.012323 18.050418,61.948323 17.870418,62.812323 L32.882418,62.812323 L32.882418,65.224323 Z M45.802418,50.356323 L45.802418,55.036323 L43.246418,55.036323 L43.246418,47.944323 L49.186418,47.944323 C48.538418,46.576323 47.242418,44.740323 46.090418,43.372323 L48.322418,42.328323 C49.654418,43.840323 51.130418,45.856323 51.742418,47.224323 L50.374418,47.944323 L58.258418,47.944323 C57.754418,46.432323 56.638418,44.200323 55.558418,42.580323 L57.862418,41.716323 C59.086418,43.408323 60.346418,45.676323 60.778418,47.188323 L58.942418,47.944323 L64.810418,47.944323 C66.142418,46.288323 67.618418,43.948323 68.446418,42.220323 L71.146418,43.156323 C70.066418,44.776323 68.806418,46.504323 67.654418,47.944323 L73.522418,47.944323 L73.522418,55.036323 L70.894418,55.036323 L70.894418,50.356323 L45.802418,50.356323 Z M74.170418,62.200323 L74.170418,64.684323 L59.518418,64.684323 L59.518418,71.560323 C59.518418,73.180323 59.086418,73.936323 57.790418,74.332323 C56.494418,74.764323 54.442418,74.800323 51.166418,74.800323 C50.986418,74.044323 50.446418,72.964323 50.050418,72.208323 C52.786418,72.316323 55.234418,72.316323 55.918418,72.244323 C56.674418,72.208323 56.854418,72.028323 56.854418,71.524323 L56.854418,64.684323 L42.526418,64.684323 L42.526418,62.200323 L56.854418,62.200323 L56.854418,59.608323 C58.942418,58.852323 61.246418,57.628323 63.082418,56.404323 L48.538418,56.404323 L48.538418,54.028323 L66.142418,54.028323 L66.646418,53.884323 L68.410418,55.216323 C66.106418,57.340323 62.758418,59.320323 59.518418,60.760323 L59.518418,62.200323 L74.170418,62.200323 Z M91.410418,42.112323 L93.894418,42.904323 C92.850418,45.532323 91.590418,48.196323 90.150418,50.644323 L90.150418,74.764323 L87.594418,74.764323 L87.594418,54.604323 C86.442418,56.224323 85.182418,57.736323 83.958418,58.996323 C83.706418,58.384323 82.950418,57.016323 82.482418,56.404323 C86.010418,52.948323 89.358418,47.584323 91.410418,42.112323 Z M111.426418,48.124323 L96.666418,48.124323 L96.666418,52.264323 L111.426418,52.264323 L111.426418,48.124323 Z M114.054418,54.532323 L96.666418,54.532323 C96.594418,60.364323 96.054418,68.644323 93.570418,74.476323 C93.174418,74.008323 92.058418,73.180323 91.518418,72.928323 C93.966418,66.988323 94.182418,58.780323 94.182418,53.236323 L94.182418,45.892323 L103.218418,45.892323 C102.822418,44.812323 102.210418,43.516323 101.670418,42.508323 L104.046418,41.896323 C104.802418,43.120323 105.522418,44.704323 105.954418,45.892323 L114.054418,45.892323 L114.054418,54.532323 Z M109.122418,64.504323 L112.434418,64.504323 L112.434418,59.104323 L109.122418,59.104323 L109.122418,64.504323 Z M104.118418,64.504323 L107.286418,64.504323 L107.286418,59.104323 L104.118418,59.104323 L104.118418,64.504323 Z M99.258418,64.504323 L102.282418,64.504323 L102.282418,59.104323 L99.258418,59.104323 L99.258418,64.504323 Z M114.594418,56.980323 L114.594418,72.100323 C114.594418,73.144323 114.414418,73.792323 113.694418,74.188323 C113.010418,74.548323 111.966418,74.620323 110.418418,74.620323 C110.310418,74.008323 109.950418,73.108323 109.698418,72.532323 C110.778418,72.568323 111.678418,72.568323 112.002418,72.532323 C112.326418,72.532323 112.434418,72.424323 112.434418,72.100323 L112.434418,66.628323 L109.122418,66.628323 L109.122418,73.612323 L107.286418,73.612323 L107.286418,66.628323 L104.118418,66.628323 L104.118418,73.756323 L102.282418,73.756323 L102.282418,66.628323 L99.258418,66.628323 L99.258418,74.656323 L97.098418,74.656323 L97.098418,56.980323 L114.594418,56.980323 Z M135.002418,57.628323 L135.362418,60.040323 C133.994418,60.508323 132.590418,60.976323 131.186418,61.408323 L131.186418,71.632323 C131.186418,73.108323 130.862418,73.828323 129.926418,74.296323 C129.098418,74.728323 127.730418,74.836323 125.426418,74.836323 C125.318418,74.116323 124.994418,73.000323 124.634418,72.244323 C126.182418,72.280323 127.586418,72.280323 127.982418,72.280323 C128.450418,72.280323 128.630418,72.136323 128.630418,71.632323 L128.630418,62.236323 L124.274418,63.640323 L123.590418,61.048323 C124.994418,60.688323 126.722418,60.148323 128.630418,59.608323 L128.630418,52.012323 L124.130418,52.012323 L124.130418,49.528323 L128.630418,49.528323 L128.630418,42.004323 L131.186418,42.004323 L131.186418,49.528323 L134.894418,49.528323 L134.894418,52.012323 L131.186418,52.012323 L131.186418,58.816323 L135.002418,57.628323 Z M143.786418,49.672323 L151.922418,49.672323 C151.562418,64.504323 151.454418,72.280323 153.542418,72.280323 C154.154418,72.280323 154.442418,71.092323 154.586418,67.492323 C155.162418,67.996323 156.134418,68.464323 156.782418,68.716323 C156.494418,73.504323 155.630418,74.836323 153.398418,74.836323 C148.754418,74.836323 149.042418,66.376323 149.186418,52.120323 L143.714418,52.120323 C143.606418,55.108323 143.354418,57.808323 142.922418,60.220323 C145.226418,61.588323 147.386418,63.028323 148.790418,64.108323 L147.206418,66.232323 C146.054418,65.260323 144.326418,64.072323 142.418418,62.812323 C141.086418,68.032323 138.638418,71.920323 134.102418,74.980323 C133.778418,74.440323 132.806418,73.288323 132.194418,72.784323 C136.622418,70.156323 138.926418,66.412323 140.114418,61.372323 C138.638418,60.472323 137.090418,59.572323 135.722418,58.816323 L137.198418,56.980323 C138.278418,57.556323 139.430418,58.168323 140.582418,58.852323 C140.906418,56.800323 141.086418,54.568323 141.158418,52.120323 L135.722418,52.120323 L135.722418,49.672323 L141.230418,49.672323 C141.266418,47.260323 141.230418,44.740323 141.158418,41.968323 L143.786418,41.932323 C143.822418,44.704323 143.822418,47.260323 143.786418,49.672323 Z M183.454418,45.784323 L183.454418,47.296323 C183.454418,50.644323 182.302418,54.532323 177.154418,57.016323 C176.830418,56.476323 175.930418,55.432323 175.426418,55.036323 C180.142418,52.876323 180.934418,49.888323 180.934418,47.224323 L180.934418,43.264323 L192.310418,43.264323 L192.310418,51.616323 C192.310418,52.624323 192.418418,52.948323 192.958418,52.948323 L195.442418,52.948323 C195.946418,52.948323 196.702418,52.876323 197.134418,52.768323 C197.170418,53.452323 197.278418,54.460323 197.386418,55.072323 C196.918418,55.216323 196.198418,55.252323 195.478418,55.252323 L192.778418,55.252323 C190.330418,55.252323 189.790418,54.208323 189.790418,51.544323 L189.790418,45.784323 L183.454418,45.784323 Z M174.994418,47.980323 L173.194418,49.888323 C172.042418,48.376323 169.666418,45.964323 167.722418,44.272323 L169.450418,42.652323 C171.394418,44.236323 173.842418,46.540323 174.994418,47.980323 Z M172.582418,68.644323 L176.542418,65.800323 C176.758418,66.484323 177.190418,67.492323 177.514418,67.996323 C171.178418,72.676323 170.206418,73.468323 169.630418,74.116323 C169.378418,73.504323 168.694418,72.388323 168.190418,71.884323 C168.874418,71.452323 169.990418,70.264323 169.990418,68.644323 L169.990418,55.792323 L164.950418,55.792323 L164.950418,53.236323 L172.582418,53.236323 L172.582418,68.644323 Z M192.202418,60.292323 L180.970418,60.292323 C182.266418,63.028323 184.210418,65.440323 186.586418,67.420323 C188.962418,65.512323 190.906418,63.136323 192.202418,60.292323 Z M193.930418,57.664323 L195.586418,58.420323 C194.182418,62.884323 191.734418,66.340323 188.674418,68.932323 C191.266418,70.624323 194.362418,71.848323 197.818418,72.604323 C197.206418,73.180323 196.522418,74.224323 196.162418,74.980323 C192.490418,74.080323 189.214418,72.604323 186.514418,70.588323 C183.634418,72.568323 180.322418,73.936323 176.902418,74.908323 C176.686418,74.188323 176.074418,73.144323 175.570418,72.532323 C178.738418,71.812323 181.798418,70.624323 184.462418,68.932323 C181.942418,66.592323 179.926418,63.748323 178.450418,60.472323 L178.954418,60.292323 L177.118418,60.292323 L177.118418,57.772323 L193.462418,57.772323 L193.930418,57.664323 Z M216.750418,47.980323 L214.950418,49.960323 C213.762418,48.412323 211.278418,46.000323 209.298418,44.344323 L211.026418,42.616323 C213.006418,44.200323 215.526418,46.504323 216.750418,47.980323 Z M214.410418,68.500323 L218.802418,65.548323 C218.982418,66.232323 219.450418,67.348323 219.666418,67.888323 C212.970418,72.640323 211.962418,73.432323 211.386418,74.188323 C211.134418,73.468323 210.450418,72.316323 209.982418,71.740323 C210.666418,71.272323 211.710418,70.264323 211.710418,68.752323 L211.710418,55.864323 L206.058418,55.864323 L206.058418,53.236323 L214.410418,53.236323 L214.410418,68.500323 Z M238.674418,53.884323 L238.674418,56.584323 L229.566418,56.584323 L229.566418,74.872323 L226.794418,74.872323 L226.794418,56.584323 L217.650418,56.584323 L217.650418,53.884323 L226.794418,53.884323 L226.794418,42.112323 L229.566418,42.112323 L229.566418,53.884323 L238.674418,53.884323 Z M251.198418,46.108323 L251.198418,63.424323 L248.786418,63.424323 L248.786418,46.108323 L251.198418,46.108323 Z M254.510418,56.296323 L254.510418,42.040323 L256.994418,42.040323 L256.994418,56.332323 C256.994418,63.424323 256.310418,69.976323 250.946418,74.836323 C250.514418,74.260323 249.578418,73.432323 248.966418,73.072323 C253.898418,68.644323 254.510418,62.740323 254.510418,56.296323 Z M279.278418,46.324323 L270.170418,46.324323 L270.170418,50.716323 L277.874418,50.716323 L277.874418,66.664323 C277.874418,67.924323 277.658418,68.608323 276.794418,69.004323 C275.966418,69.436323 274.670418,69.472323 272.726418,69.472323 C272.654418,68.752323 272.258418,67.780323 271.934418,67.096323 C273.302418,67.132323 274.526418,67.132323 274.850418,67.132323 C275.282418,67.132323 275.390418,66.988323 275.390418,66.628323 L275.390418,53.164323 L270.170418,53.164323 L270.170418,74.800323 L267.614418,74.800323 L267.614418,53.164323 L262.826418,53.164323 L262.826418,69.724323 L260.342418,69.724323 L260.342418,50.716323 L267.614418,50.716323 L267.614418,46.324323 L259.082418,46.324323 L259.082418,43.876323 L279.278418,43.876323 L279.278418,46.324323 Z" id="美学偏执设计师"></path>
            </g>
        </g>
    </g>
</svg>